<svg xmlns="http://www.w3.org/2000/svg" version="1.1" xmlns:xlink="http://www.w3.org/1999/xlink" xmlns:svgjs="http://svgjs.com/svgjs" width="807.771" height="507.271"><defs id="SvgjsDefs1163"></defs><svg id="SvgjsSvg1164" style="overflow: visible;"><svg xmlns="http://www.w3.org/2000/svg" version="1.1" xmlns:xlink="http://www.w3.org/1999/xlink" xmlns:svgjs="http://svgjs.com/svgjs" width="607.771" height="507.271"><defs id="SvgjsDefs1083"></defs><g id="SvgjsG1084" transform="matrix(1,0,0,1,0,0)"><g id="SvgjsG1085" transform="matrix(1,0,0,1,0,0)"><text id="SvgjsText1086" font-family="Arial, Helvetica, sans-serif" font-size="16" font-weight="400" text-anchor="middle" family="Arial, Helvetica, sans-serif" size="16" weight="400" anchor="middle" transform="matrix(0,-1,1,0,0,224.302)" svgjs:data="{&quot;leading&quot;:&quot;1.3&quot;}"><tspan id="SvgjsTspan1087" dy="20.8" x="0" svgjs:data="{&quot;newLined&quot;:true}">Concentration (nM)</tspan></text></g><g id="SvgjsG1088" transform="matrix(1,0,0,1,20,0)" width="41" height="448.604"><text id="SvgjsText1089" font-family="Arial, Helvetica, sans-serif" font-size="16px" family="Arial, Helvetica, sans-serif" size="16px" transform="matrix(1,0,0,1,0,438.10400390625)" svgjs:data="{&quot;leading&quot;:&quot;1.3&quot;}"><tspan id="SvgjsTspan1090" dy="20.8" x="0" svgjs:data="{&quot;newLined&quot;:true}">0</tspan></text><text id="SvgjsText1091" font-family="Arial, Helvetica, sans-serif" font-size="16px" family="Arial, Helvetica, sans-serif" size="16px" transform="matrix(1,0,0,1,0,326.2030029296875)" svgjs:data="{&quot;leading&quot;:&quot;1.3&quot;}"><tspan id="SvgjsTspan1092" dy="20.8" x="0" svgjs:data="{&quot;newLined&quot;:true}">50</tspan></text><text id="SvgjsText1093" font-family="Arial, Helvetica, sans-serif" font-size="16px" family="Arial, Helvetica, sans-serif" size="16px" transform="matrix(1,0,0,1,0,214.302001953125)" svgjs:data="{&quot;leading&quot;:&quot;1.3&quot;}"><tspan id="SvgjsTspan1094" dy="20.8" x="0" svgjs:data="{&quot;newLined&quot;:true}">100</tspan></text><text id="SvgjsText1095" font-family="Arial, Helvetica, sans-serif" font-size="16px" family="Arial, Helvetica, sans-serif" size="16px" transform="matrix(1,0,0,1,0,102.4010009765625)" svgjs:data="{&quot;leading&quot;:&quot;1.3&quot;}"><tspan id="SvgjsTspan1096" dy="20.8" x="0" svgjs:data="{&quot;newLined&quot;:true}">150</tspan></text><text id="SvgjsText1097" font-family="Arial, Helvetica, sans-serif" font-size="16px" family="Arial, Helvetica, sans-serif" size="16px" transform="matrix(1,0,0,1,0,-9.5)" svgjs:data="{&quot;leading&quot;:&quot;1.3&quot;}"><tspan id="SvgjsTspan1098" dy="20.8" x="0" svgjs:data="{&quot;newLined&quot;:true}">200</tspan></text><path id="SvgjsPath1099" d="M40 0v448.604M40 447.604h-10M40 335.703h-10M40 223.80199999999996h-10M40 111.90099999999995h-10M40 -5.684341886080802e-14h-10M40 437.4139h-3.3333333333333335M40 426.2238h-3.3333333333333335M40 415.03369999999995h-3.3333333333333335M40 403.8436h-3.3333333333333335M40 392.6535h-3.3333333333333335M40 381.4634h-3.3333333333333335M40 370.27329999999995h-3.3333333333333335M40 359.0832h-3.3333333333333335M40 347.8931h-3.3333333333333335M40 325.51289999999995h-3.3333333333333335M40 314.3228h-3.3333333333333335M40 303.1327h-3.3333333333333335M40 291.94259999999997h-3.3333333333333335M40 280.75249999999994h-3.3333333333333335M40 269.56239999999997h-3.3333333333333335M40 258.3723h-3.3333333333333335M40 247.18219999999997h-3.3333333333333335M40 235.99209999999997h-3.3333333333333335M40 213.61189999999996h-3.3333333333333335M40 202.42179999999996h-3.3333333333333335M40 191.2317h-3.3333333333333335M40 180.04159999999996h-3.3333333333333335M40 168.8515h-3.3333333333333335M40 157.66139999999996h-3.3333333333333335M40 146.47129999999999h-3.3333333333333335M40 135.28119999999996h-3.3333333333333335M40 124.09109999999998h-3.3333333333333335M40 101.71089999999998h-3.3333333333333335M40 90.52079999999995h-3.3333333333333335M40 79.33069999999998h-3.3333333333333335M40 68.14059999999995h-3.3333333333333335M40 56.95049999999998h-3.3333333333333335M40 45.76039999999995h-3.3333333333333335M40 34.570299999999975h-3.3333333333333335M40 23.380199999999945h-3.3333333333333335M40 12.190099999999973h-3.3333333333333335" stroke="#000000" fill="none"></path></g></g><g id="SvgjsG1100"><g id="SvgjsG1101" transform="matrix(1,0,0,1,61,0)"><text id="SvgjsText1102" font-family="Arial, Helvetica, sans-serif" font-size="16" font-weight="400" text-anchor="middle" family="Arial, Helvetica, sans-serif" size="16" weight="400" anchor="middle" transform="matrix(1,0,0,1,0,0)" svgjs:data="{&quot;leading&quot;:&quot;1.3&quot;}"><tspan id="SvgjsTspan1103" dy="20.8" x="0" svgjs:data="{&quot;newLined&quot;:true}"></tspan></text></g></g><g id="SvgjsG1104"><g id="SvgjsG1105" transform="matrix(1,0,0,1,61,448.6043)" width="546.771" height="30"><text id="SvgjsText1106" font-family="Arial, Helvetica, sans-serif" font-size="16px" family="Arial, Helvetica, sans-serif" size="16px" transform="matrix(1,0,0,1,-4.5,10)" svgjs:data="{&quot;leading&quot;:&quot;1.3&quot;}"><tspan id="SvgjsTspan1107" dy="20.8" x="0" svgjs:data="{&quot;newLined&quot;:true}">0</tspan></text><text id="SvgjsText1108" font-family="Arial, Helvetica, sans-serif" font-size="16px" family="Arial, Helvetica, sans-serif" size="16px" transform="matrix(1,0,0,1,95.6542,10)" svgjs:data="{&quot;leading&quot;:&quot;1.3&quot;}"><tspan id="SvgjsTspan1109" dy="20.8" x="0" svgjs:data="{&quot;newLined&quot;:true}">200</tspan></text><text id="SvgjsText1110" font-family="Arial, Helvetica, sans-serif" font-size="16px" family="Arial, Helvetica, sans-serif" size="16px" transform="matrix(1,0,0,1,204.808,10)" svgjs:data="{&quot;leading&quot;:&quot;1.3&quot;}"><tspan id="SvgjsTspan1111" dy="20.8" x="0" svgjs:data="{&quot;newLined&quot;:true}">400</tspan></text><text id="SvgjsText1112" font-family="Arial, Helvetica, sans-serif" font-size="16px" family="Arial, Helvetica, sans-serif" size="16px" transform="matrix(1,0,0,1,313.963,10)" svgjs:data="{&quot;leading&quot;:&quot;1.3&quot;}"><tspan id="SvgjsTspan1113" dy="20.8" x="0" svgjs:data="{&quot;newLined&quot;:true}">600</tspan></text><text id="SvgjsText1114" font-family="Arial, Helvetica, sans-serif" font-size="16px" family="Arial, Helvetica, sans-serif" size="16px" transform="matrix(1,0,0,1,423.117,10)" svgjs:data="{&quot;leading&quot;:&quot;1.3&quot;}"><tspan id="SvgjsTspan1115" dy="20.8" x="0" svgjs:data="{&quot;newLined&quot;:true}">800</tspan></text><path id="SvgjsPath1116" d="M0 0h546.771M0 0v10M109.1542 0v10M218.3084 0v10M327.4626 0v10M436.6168 0v10M10.915420000000001 0v3.3333333333333335M21.830840000000002 0v3.3333333333333335M32.74626 0v3.3333333333333335M43.661680000000004 0v3.3333333333333335M54.5771 0v3.3333333333333335M65.49252 0v3.3333333333333335M76.40794 0v3.3333333333333335M87.32336000000001 0v3.3333333333333335M98.23878 0v3.3333333333333335M120.06962 0v3.3333333333333335M130.98504 0v3.3333333333333335M141.90046 0v3.3333333333333335M152.81588 0v3.3333333333333335M163.7313 0v3.3333333333333335M174.64672000000002 0v3.3333333333333335M185.56214 0v3.3333333333333335M196.47756 0v3.3333333333333335M207.39298 0v3.3333333333333335M229.22382 0v3.3333333333333335M240.13924 0v3.3333333333333335M251.05466 0v3.3333333333333335M261.97008 0v3.3333333333333335M272.8855 0v3.3333333333333335M283.80092 0v3.3333333333333335M294.71634 0v3.3333333333333335M305.63176 0v3.3333333333333335M316.54718 0v3.3333333333333335M338.37802 0v3.3333333333333335M349.29344000000003 0v3.3333333333333335M360.20886 0v3.3333333333333335M371.12428 0v3.3333333333333335M382.0397 0v3.3333333333333335M392.95512 0v3.3333333333333335M403.87054 0v3.3333333333333335M414.78596 0v3.3333333333333335M425.70138000000003 0v3.3333333333333335M447.53222 0v3.3333333333333335M458.44764 0v3.3333333333333335M469.36306 0v3.3333333333333335M480.27848 0v3.3333333333333335M491.1939 0v3.3333333333333335M502.10932 0v3.3333333333333335M513.02474 0v3.3333333333333335M523.94016 0v3.3333333333333335M534.85558 0v3.3333333333333335" stroke="#000000" fill="none"></path></g><g id="SvgjsG1117" transform="matrix(1,0,0,1,61,478.6043)"><text id="SvgjsText1118" font-family="Arial, Helvetica, sans-serif" font-size="16" font-weight="400" text-anchor="middle" family="Arial, Helvetica, sans-serif" size="16" weight="400" anchor="middle" transform="matrix(1,0,0,1,273.3855,-9.33335)" svgjs:data="{&quot;leading&quot;:&quot;1.3&quot;}"><tspan id="SvgjsTspan1119" dy="20.8" x="0" svgjs:data="{&quot;newLined&quot;:true}">Time (s)</tspan></text></g></g><g id="SvgjsG1120"></g><g id="SvgjsG1121" viewBox="0 0 546.771 448.6043" transform="matrix(1,0,0,1,61,0)"><polyline id="SvgjsPolyline1122" points="0,0 0.05464977511244377,1.3431176452621685 0.12797462387504852,3.138811126151097 0.1989698657415953,4.870397525075418 0.29207711696628574,7.130660313543274 0.3386307425786309,8.256222626986812 0.4022407678043964,9.78920507193925 0.4658507930301618,11.316415394227818 0.5294608182559273,12.83781409781318 0.5930708434816927,14.35336397197159 0.6883060982423063,16.611396280900067 0.7835413530029197,18.856132445816 0.8787766077635333,21.087474769797268 0.9740118625241468,23.30533537531494 1.0992876927815889,26.202126395501978 1.224563523039031,29.075301566159 1.349839353296473,31.924732743856396 1.4751151835539151,34.750315343221246 1.6377044570639414,38.38180727992551 1.8002937305739681,41.97287117590224 1.9628830040839944,45.52343852826573 2.125472277594021,49.033490194822264 2.3251760981250835,53.28939317564448 2.5248799186561457,57.484368077859244 2.7245837391872083,61.61864679959149 2.924287559718271,65.69253596185064 3.1670695025091686,70.56442877217773 3.4098514453000663,75.34845163123032 3.652633388090964,80.0455299871607 3.8954153308818618,84.65668240853199 4.183955294325882,90.0267218800675 4.472495257769902,95.2789793082261 4.761035221213922,100.4155687665845 5.049575184657943,105.43868346733268 5.391249126155294,111.24318935751592 5.732923067652645,116.89565988527562 6.074597009149994,122.40002732107604 6.416270950647346,127.76023886420035 6.818160919096517,133.8860189646473 7.220050887545686,139.8243006284847 7.621940855994857,145.58144721190354 8.023830824444028,151.16369928629683 8.497658396620015,157.5288751746334 8.971485968796001,163.66928361951852 9.44531354097199,169.59441528372236 9.919141113147974,175.31340565501114 10.479251997426253,181.82001136064872 11.039362881704534,188.06481476441746 11.599473765982813,194.06107094177352 12.159584650261092,199.82133449958963 12.827094237008499,206.3944292708801 13.49460382375591,212.66822782618812 14.16211341050332,218.66049384178942 14.829622997250729,224.387802824852 15.589597708882087,230.60560635751935 16.349572420513447,236.52120610694917 17.109547132144804,242.1542344930032 17.869521843776162,247.52283012494996 18.763551835334624,253.52253697217915 19.657581826893082,259.20443623692415 20.551611818451537,264.5914211280302 21.44564181001,269.704413175976 22.481445094800918,275.3106317042932 23.517248379591834,280.601548673891 24.55305166438275,285.60158868719304 25.58885494917367,290.3328884490253 26.815198436080962,295.614389354422 28.04154192298826,300.57692948675634 29.26788540989555,305.24727867636375 30.49422889680284,309.649475956335 31.86587021283945,314.2818870737025 33.237511528876055,318.63245635152646 34.609152844912664,322.7252015611743 35.98079416094927,326.58164060667843 37.54772522157991,330.7224076279721 39.11465628221055,334.60511562789986 40.681587342841176,338.2524145126456 42.24851840347181,341.68452087863017 44.00799147363613,345.30398664282376 45.76746454380044,348.69713529681974 47.526937613964755,351.8839897280268 49.28641068412907,354.8823994663812 51.28213232917415,358.0751657357819 53.27785397421924,361.0661186607922 55.27357561926432,363.8733707199924 57.2692972643094,366.513037853371 59.51852417969082,369.3047993181242 61.76775109507224,371.9196815536428 64.01697801045366,374.3736438649219 66.26620492583507,376.6808747929549 68.81375106126379,379.13257624537073 71.36129719669249,381.42805846872193 73.9088433321212,383.5815301164065 76.45638946754991,385.6056095975784 79.33548079974497,387.7512193273992 82.21457213194005,389.759825964546 85.09366346413509,391.6439417276316 87.97275479633016,393.41467171052034 91.23487733850155,395.29620360259713 94.49699988067292,397.05716968813744 97.75912242284429,398.7086380416828 101.02124496501567,400.26042506780357 104.71523926362725,401.9081010136488 108.40923356223882,403.4499886802327 112.10322786085041,404.89583246661476 115.797222159462,406.25427061496345 119.98619454001988,407.6984950307109 124.17516692057777,409.0497584256597 128.36413930113562,410.3166556078839 132.5531116816935,411.5068018388556 137.30354651151373,412.7719829392553 142.05398134133392,413.95557993193637 146.80441617115414,415.06515730018236 151.55485100097437,416.1074147416368 156.94663235404695,417.2162042709043 162.33841370711957,418.25335093087875 167.73019506019216,419.22551673266423 173.12197641326475,420.1385997450692 179.2431525098748,421.1100921455223 185.36432860648483,422.0187096444958 191.48550470309485,422.8703131504856 197.6066807997049,423.67008976646645 204.55991347979958,424.5214280901773 211.51314615989426,425.3175752179537 218.46637883998892,426.06368800539167 225.4196115200836,426.7643289856199 233.32028586644321,427.51028274334254 241.22096021280282,428.2078056640166 249.12163455916243,428.8614323975892 257.02230890552204,429.47517384793633 266.00328274689184,430.1288216409638 274.98425658826164,430.7399698302729 283.96523042963145,431.31260564627206 292.94620427100125,431.8502548582191 303.1580769274149,432.42297467138354 313.3699495838286,432.9584072958161 323.58182224024233,433.4600572735101 333.793694896656,433.9310227992876 345.40896772500327,434.43283209143664 357.0242405533504,434.90192902622596 368.6395133816976,435.3413934269114 380.2547862100448,435.75394739574165 393.4697339142942,436.1935988223021 406.68468161854344,436.6045557185723 419.8996293227927,436.98952390221336 433.114577027042,437.35089440933587 448.1535410321143,437.73607533726624 463.1925050371865,438.0960881630988 478.2314690422587,438.43330970689476 493.270433047331,438.7498398676369 510.3891118285152,439.0872798287355 527.5077906096993,439.4026474599716 544.6264693908836,439.69803012014467 546.7709999994532,439.732761358461" stroke-dasharray="" stroke-linejoin="miter" style="fill: none; stroke: rgb(0, 0, 255); stroke-width: 3; stroke-opacity: 1; stroke-linecap: butt;"></polyline><polyline id="SvgjsPolyline1123" points="0,0 0,447.6043" stroke="LightGray" stroke-width="1" fill="none"></polyline><polyline id="SvgjsPolyline1124" points="109.1542,0 109.1542,447.6043" stroke="LightGray" stroke-width="1" fill="none"></polyline><polyline id="SvgjsPolyline1125" points="218.3084,0 218.3084,447.6043" stroke="LightGray" stroke-width="1" fill="none"></polyline><polyline id="SvgjsPolyline1126" points="327.4626,0 327.4626,447.6043" stroke="LightGray" stroke-width="1" fill="none"></polyline><polyline id="SvgjsPolyline1127" points="436.6168,0 436.6168,447.6043" stroke="LightGray" stroke-width="1" fill="none"></polyline><polyline id="SvgjsPolyline1128" points="0,447.6043 545.771,447.6043" stroke="LightGray" stroke-width="1" fill="none"></polyline><polyline id="SvgjsPolyline1129" points="0,335.7033 545.771,335.7033" stroke="LightGray" stroke-width="1" fill="none"></polyline><polyline id="SvgjsPolyline1130" points="0,223.8023 545.771,223.8023" stroke="LightGray" stroke-width="1" fill="none"></polyline><polyline id="SvgjsPolyline1131" points="0,111.90129999999999 545.771,111.90129999999999" stroke="LightGray" stroke-width="1" fill="none"></polyline><polyline id="SvgjsPolyline1132" points="0,0.00029999999998153726 545.771,0.00029999999998153726" stroke="LightGray" stroke-width="1" fill="none"></polyline><polyline id="SvgjsPolyline1133" points="0,448.6043 0.05464977511244377,447.26118235473785 0.12797462387504852,445.4654888738489 0.1989698657415953,443.7339024749246 0.29207711696628574,441.4736396864567 0.3386307425786309,440.34807737301315 0.4022407678043964,438.81509492806066 0.4658507930301618,437.28788460577215 0.5294608182559273,435.76648590218673 0.5930708434816927,434.2509360280284 0.6883060982423063,431.99290371909984 0.7835413530029197,429.74816755418396 0.8787766077635333,427.51682523020264 0.9740118625241468,425.29896462468497 1.0992876927815889,422.4021736044979 1.224563523039031,419.52899843384085 1.349839353296473,416.67956725614346 1.4751151835539151,413.8539846567786 1.6377044570639414,410.2224927200744 1.8002937305739681,406.6314288240976 1.9628830040839944,403.0808614717342 2.125472277594021,399.5708098051777 2.3251760981250835,395.31490682435555 2.5248799186561457,391.1199319221407 2.7245837391872083,386.9856532004085 2.924287559718271,382.91176403814933 3.1670695025091686,378.03987122782223 3.4098514453000663,373.25584836876965 3.652633388090964,368.55877001283926 3.8954153308818618,363.9476175914679 4.183955294325882,358.5775781199324 4.472495257769902,353.32532069177387 4.761035221213922,348.1887312334154 5.049575184657943,343.1656165326673 5.391249126155294,337.3611106424841 5.732923067652645,331.7086401147243 6.074597009149994,326.20427267892387 6.416270950647346,320.8440611357995 6.818160919096517,314.71828103535256 7.220050887545686,308.7799993715152 7.621940855994857,303.0228527880963 8.023830824444028,297.440600713703 8.497658396620015,291.0754248253664 8.971485968796001,284.93501638048133 9.44531354097199,279.0098847162775 9.919141113147974,273.2908943449887 10.479251997426253,266.7842886393512 11.039362881704534,260.53948523558245 11.599473765982813,254.54322905822636 12.159584650261092,248.78296550041026 12.827094237008499,242.20987072911979 13.49460382375591,235.93607217381174 14.16211341050332,229.94380615821046 14.829622997250729,224.21649717514785 15.589597708882087,217.9986936424805 16.349572420513447,212.08309389305072 17.109547132144804,206.45006550699668 17.869521843776162,201.0814698750499 18.763551835334624,195.08176302782073 19.657581826893082,189.3998637630757 20.551611818451537,184.01287887196963 21.44564181001,178.89988682402384 22.481445094800918,173.2936682957067 23.517248379591834,168.00275132610892 24.55305166438275,163.00271131280687 25.58885494917367,158.27141155097462 26.815198436080962,152.98991064557788 28.04154192298826,148.02737051324357 29.26788540989555,143.35702132363616 30.49422889680284,138.95482404366476 31.86587021283945,134.32241292629726 33.237511528876055,129.97184364847334 34.609152844912664,125.87909843882551 35.98079416094927,122.02265939332142 37.54772522157991,117.88189237202772 39.11465628221055,113.99918437210005 40.681587342841176,110.35188548735425 42.24851840347181,106.91977912136974 44.00799147363613,103.30031335717615 45.76746454380044,99.90716470318023 47.526937613964755,96.72031027197306 49.28641068412907,93.72190053361874 51.28213232917415,90.52913426421804 53.27785397421924,87.53818133920777 55.27357561926432,84.73092928000756 57.2692972643094,82.09126214662894 59.51852417969082,79.29950068187571 61.76775109507224,76.68461844635715 64.01697801045366,74.230656135078 66.26620492583507,71.923425207045 68.81375106126379,69.47172375462924 71.36129719669249,67.17624153127798 73.9088433321212,65.02276988359347 76.45638946754991,62.99869040242163 79.33548079974497,60.85308067260081 82.21457213194005,58.84447403545403 85.09366346413509,56.96035827236835 87.97275479633016,55.189628289479685 91.23487733850155,53.30809639740289 94.49699988067292,51.54713031186259 97.75912242284429,49.89566195831719 101.02124496501567,48.34387493219651 104.71523926362725,46.696198986351305 108.40923356223882,45.15431131976732 112.10322786085041,43.70846753338532 115.797222159462,42.35002938503658 119.98619454001988,40.905804969289136 124.17516692057777,39.554541574340305 128.36413930113562,38.287644392116135 132.5531116816935,37.09749816114453 137.30354651151373,35.832317060744856 142.05398134133392,34.64872006806377 146.80441617115414,33.53914269981772 151.55485100097437,32.49688525836336 156.94663235404695,31.388095729095824 162.33841370711957,30.350949069121384 167.73019506019216,29.378783267335905 173.12197641326475,28.465700254930994 179.2431525098748,27.494207854477906 185.36432860648483,26.585590355504337 191.48550470309485,25.733986849514622 197.6066807997049,24.934210233533747 204.55991347979958,24.08287190982287 211.51314615989426,23.28672478204652 218.46637883998892,22.540611994608525 225.4196115200836,21.839971014380296 233.32028586644321,21.094017256657594 241.22096021280282,20.39649433598356 249.12163455916243,19.742867602410968 257.02230890552204,19.12912615206386 266.00328274689184,18.4754783590364 274.98425658826164,17.86433016972734 283.96523042963145,17.291694353728133 292.94620427100125,16.75404514178109 303.1580769274149,16.18132532861671 313.3699495838286,15.64589270418412 323.58182224024233,15.14424272649012 333.793694896656,14.673277200712675 345.40896772500327,14.171467908563557 357.0242405533504,13.702370973774237 368.6395133816976,13.262906573088799 380.2547862100448,12.85035260425866 393.4697339142942,12.410701177698229 406.68468161854344,11.999744281427922 419.8996293227927,11.614776097786944 433.114577027042,11.253405590664443 448.1535410321143,10.868224662734008 463.1925050371865,10.508211836901467 478.2314690422587,10.17099029310549 493.270433047331,9.854460132363386 510.3891118285152,9.51702017126479 527.5077906096993,9.201652540028647 544.6264693908836,8.906269879855586 546.7709999994532,8.871538641539246" stroke-dasharray="" stroke-linejoin="miter" style="fill: none; stroke: rgb(0, 170, 0); stroke-width: 3; stroke-opacity: 1; stroke-linecap: butt;"></polyline><polyline id="SvgjsPolyline1134" points="0,224.30215 0.05464977511244377,225.64126233119708 0.12797462387504852,227.4192017852099 0.1989698657415953,229.1204218875677 0.29207711696628574,231.32180429108158 0.3386307425786309,232.41003583324292 0.4022407678043964,233.88372771573142 0.4658507930301618,235.34229681061416 0.5294608182559273,236.78593415661143 0.5930708434816927,238.21482817257316 0.6883060982423063,240.32697446434904 0.7835413530029197,242.4071020099885 0.8787766077635333,244.45581120888855 0.9740118625241468,246.47369011263245 1.0992876927815889,249.08209570128977 1.224563523039031,251.6394282155273 1.349839353296473,254.14693281964475 1.4751151835539151,256.6058209753262 1.6377044570639414,259.7265239422185 1.8002937305739681,262.7698142658455 1.9628830040839944,265.7381011837166 2.125472277594021,268.633709616194 2.3251760981250835,272.0941421860925 2.5248799186561457,275.45229994943475 2.7245837391872083,278.71200771012946 2.924287559718271,281.876927364983 3.1670695025091686,285.60193543584336 3.4098514453000663,289.1980190426232 3.652633388090964,292.6708736653304 3.8954153308818618,296.0259048788324 4.183955294325882,299.86711294919854 4.472495257769902,303.5572514168151 4.761035221213922,307.1039704659956 5.049575184657943,310.51446932667386 5.391249126155294,314.38610789114955 5.732923067652645,318.086718422722 6.074597009149994,321.62611044161235 6.416270950647346,325.01343300479687 6.818160919096517,328.814605241734 7.220050887545686,332.4299909714773 7.621940855994857,335.87147314784403 8.023830824444028,339.1500365509018 8.497658396620015,342.81992199809974 8.971485968796001,346.2926290148795 9.44531354097199,349.5821207009636 9.919141113147974,352.7011859454696 10.479251997426253,356.1843273816045 11.039362881704534,359.46311527027314 11.599473765982813,362.55345334179196 12.159584650261092,365.46977084131225 12.827094237008499,368.7360270059497 13.49460382375591,371.79341746160395 14.16211341050332,374.6597590868951 14.829622997250729,377.3510555972481 15.589597708882087,380.22017818213317 16.349572420513447,382.8996920762926 17.109547132144804,385.4064115232201 17.869521843776162,387.75536744650765 18.763551835334624,390.33469159375926 19.657581826893082,392.73333780614524 20.551611818451537,394.9683655930722 21.44564181001,397.0549080919588 22.481445094800918,399.3040827445368 23.517248379591834,401.3899643643592 24.55305166438275,403.32860252135754 25.58885494917367,405.13415961738116 26.815198436080962,407.1166717851082 28.04154192298826,408.9478571304731 29.26788540989555,410.6434053817174 30.49422889680284,412.21706328938785 31.86587021283945,413.8473393082435 33.237511528876055,415.3544833776615 34.609152844912664,416.7511842851154 35.98079416094927,418.0485649304881 37.54772522157991,419.4213989691739 39.11465628221055,420.6896448525544 40.681587342841176,421.8642108161164 42.24851840347181,422.9546416522127 44.00799147363613,424.08895801311206 45.76746454380044,425.13771081350825 47.526937613964755,426.10976688564426 49.28641068412907,427.0128895742489 51.28213232917415,427.9622746817126 53.27785397421924,428.84009406050956 55.27357561926432,429.6537801273666 57.2692972643094,430.4098372770412 59.51852417969082,431.1998363846538 61.76775109507224,431.9307439321907 64.01697801045366,432.60866628706856 66.26620492583507,433.238949944157 68.81375106126379,433.901086283484 71.36129719669249,434.5138555453628 73.9088433321212,435.0823546771022 76.45638946754991,435.61104623507237 79.33548079974497,436.1654414355289 82.21457213194005,436.6787433827769 85.09366346413509,437.15517941348116 87.97275479633016,437.59845196745346 91.23487733850155,438.0646363028503 94.49699988067292,438.49639016295635 97.75912242284429,438.89724964527795 101.02124496501567,439.270312083121 104.71523926362725,439.6625581015266 108.40923356223882,440.02596371642534 112.10322786085041,440.3634830687126 115.797222159462,440.6777043603414 119.98619454001988,441.00865109034294 124.17516692057777,441.3153449648646 128.36413930113562,441.6002660821023 132.5531116816935,441.86558758579497 137.30354651151373,442.1451155469884 142.05398134133392,442.404230745782 146.80441617115414,442.64501643751856 151.55485100097437,442.86929835104513 156.94663235404695,443.1058504405818 162.33841370711957,443.3251777835185 167.73019506019216,443.5290356748052 173.12197641326475,443.71896259795284 179.2431525098748,443.91937236300384 185.36432860648483,444.10523063558804 191.48550470309485,444.27801799619505 197.6066807997049,444.4390323116743 204.55991347979958,444.6090658333007 211.51314615989426,444.7667838890121 218.46637883998892,444.9134379623363 225.4196115200836,445.0501252017317 233.32028586644321,445.1945374785329 241.22096021280282,445.32851473332465 249.12163455916243,445.45311604422113 257.02230890552204,445.5692699737205 266.00328274689184,445.69206089729613 274.98425658826164,445.805997914359 283.96523042963145,445.91197866670836 292.94620427100125,446.0107902394049 303.1580769274149,446.1152938363986 313.3699495838286,446.2122772188308 323.58182224024233,446.30250203448645 333.793694896656,446.3866361766352 345.40896772500327,446.47565895624365 357.0242405533504,446.55828726492723 368.6395133816976,446.63516814363976 380.2547862100448,446.7068690251587 393.4697339142942,446.7827659408357 406.68468161854344,446.85322059504466 419.8996293227927,446.918783204028 433.114577027042,446.97993631983445 448.1535410321143,447.044693716745 463.1925050371865,447.1048150277866 478.2314690422587,447.16076859740974 493.270433047331,447.21296519802974 510.3891118285152,447.2682574013748 527.5077906096993,447.3195970846334 544.6264693908836,447.36738324459657 546.7709999994532,447.37296829951714" stroke-dasharray="" stroke-linejoin="miter" style="fill: none; stroke: rgb(255, 0, 0); stroke-width: 3; stroke-opacity: 1; stroke-linecap: butt;"></polyline></g></svg></svg><svg id="SvgjsSvg1165" x="607.771" style="overflow: visible;"><svg xmlns="http://www.w3.org/2000/svg" version="1.1" xmlns:xlink="http://www.w3.org/1999/xlink" xmlns:svgjs="http://svgjs.com/svgjs" width="200" height="160"><line id="SvgjsLine1152" x1="15" y1="90" x2="170" y2="90" stroke="gray" stroke-width="0.3"></line><line id="SvgjsLine1144" x1="15" y1="40" x2="170" y2="40" stroke="gray" stroke-width="0.3"></line><defs id="SvgjsDefs1135"><clipPath id="SvgjsClipPath1143"><rect id="SvgjsRect1142" width="170" height="30"></rect></clipPath><clipPath id="SvgjsClipPath1151"><rect id="SvgjsRect1150" width="170" height="80"></rect></clipPath><clipPath id="SvgjsClipPath1159"><rect id="SvgjsRect1158" width="170" height="130"></rect></clipPath><clipPath id="SvgjsClipPath1162"><rect id="SvgjsRect1161" width="180" height="160"></rect></clipPath></defs><g id="SvgjsG1136" clip-path="url(&quot;#SvgjsClipPath1162&quot;)"><g id="SvgjsG1137" transform="matrix(1,0,0,1,5,0)"><rect id="SvgjsRect1138" width="170" height="30" fill="white" opacity="0.5"></rect><line id="SvgjsLine1139" x1="0" y1="0" x2="18" y2="18" stroke="#ff0000" stroke-width="3" transform="matrix(1,0,0,1,5,5)" stroke-dasharray=""></line><text id="SvgjsText1140" font-family="Arial, Helvetica, sans-serif" font-size="14" font-weight="400" family="Arial, Helvetica, sans-serif" size="14" weight="400" transform="matrix(1,0,0,1,40,0)" svgjs:data="{&quot;leading&quot;:&quot;1.3&quot;}"><tspan id="SvgjsTspan1141" dy="18.2" x="0" svgjs:data="{&quot;newLined&quot;:true}">edgeandsmile</tspan></text></g><g id="SvgjsG1145" transform="matrix(1,0,0,1,5,50)"><rect id="SvgjsRect1146" width="170" height="30" fill="white" opacity="0.5"></rect><line id="SvgjsLine1147" x1="0" y1="0" x2="18" y2="18" stroke="#00aa00" stroke-width="3" transform="matrix(1,0,0,1,5,5)" stroke-dasharray=""></line><text id="SvgjsText1148" font-family="Arial, Helvetica, sans-serif" font-size="14" font-weight="400" family="Arial, Helvetica, sans-serif" size="14" weight="400" transform="matrix(1,0,0,1,40,0)" svgjs:data="{&quot;leading&quot;:&quot;1.3&quot;}"><tspan id="SvgjsTspan1149" dy="18.2" x="0" svgjs:data="{&quot;newLined&quot;:true}">miRNAandedge</tspan></text></g><g id="SvgjsG1153" transform="matrix(1,0,0,1,5,100)"><rect id="SvgjsRect1154" width="170" height="30" fill="white" opacity="0.5"></rect><line id="SvgjsLine1155" x1="0" y1="0" x2="18" y2="18" stroke="#0000ff" stroke-width="3" transform="matrix(1,0,0,1,5,5)" stroke-dasharray=""></line><text id="SvgjsText1156" font-family="Arial, Helvetica, sans-serif" font-size="14" font-weight="400" family="Arial, Helvetica, sans-serif" size="14" weight="400" transform="matrix(1,0,0,1,40,0)" svgjs:data="{&quot;leading&quot;:&quot;1.3&quot;}"><tspan id="SvgjsTspan1157" dy="18.2" x="0" svgjs:data="{&quot;newLined&quot;:true}">miRNA</tspan></text></g></g></svg></svg></svg>