<svg xmlns="http://www.w3.org/2000/svg" width="607.771" height="507.281" viewBox="-463.75 -1076.9953358764649 569.4705 586.9953358764649"><style>text { stroke: black; fill: black; stroke-width: 0; font-size: 15px; font-family: Verdana, Arial, sans-serif }</style><g><path d=" M-77.51041793823242 -595.192 A5 5 0 0 1 -72.51041793823242 -600.192 L42.51041793823242 -600.192 L42.51041793823242 -600.192 A5 5 0 0 1 47.51041793823242 -595.192 L47.51041793823242 -511.192 L47.51041793823242 -511.192 A5 5 0 0 1 42.51041793823242 -506.192 L-72.51041793823242 -506.192 L-72.51041793823242 -506.192 A5 5 0 0 1 -77.51041793823242 -511.192 L-77.51041793823242 -595.192Z" style="stroke: Black; fill: White; stroke-width: 1; stroke-linejoin: miter; stroke-miterlimit: 2.0"/><g transform="translate(-64.75 -595.192)" width="99.5" height="64"><svg xmlns="http://www.w3.org/2000/svg" height="64" width="99.5">
  <style>path { stroke: silver; stroke-width: 2.500000; stroke-linejoin: round; fill: none; } text { stroke: black; fill: black; stroke-width: 0; font-family: Verdana,Arial,sans-serif; font-size: 15.000000px; text-anchor: middle; } g { fill: none; } path.svgdsd { stroke: silver; stroke-width: 2.5; stroke-linejoin: round; } text.svgdsd { fill: black; stroke-width: 0; font-family: Verdana,Arial,sans-serif; font-size: 15px; text-anchor: middle } text.fixedwidth { font-family:Lucida Console,monospace } text.pseudoknot { font-weight:bold } path.shortbranchjoin {  } path.branchjoin { stroke-dasharray:4 } path.svgdsd.dom_3 { stroke: red } text.svgdsd.dom_3 { fill: red } path.svgdsd.tether-pin { stroke : black }</style>
  <g>
  <g>
  <g>
  <g>
  <path class="svgdsd" d="M 1.25,23          L 50.25,23"/>
<text class="svgdsd" x="25.75" y="17" transform="rotate(0 25.75,17)">2</text>
  <path class="svgdsd dom_3" d="M 49.25,23          L 98.25,23          L 85.259,15.5"/>
<text class="svgdsd dom_3" x="73.75" y="17" transform="rotate(0 73.75,17)">3</text>
  <path class="svgdsd" d="M 14.24,38.499          L 1.75,31          L 50.25,31"/>
<text class="svgdsd" x="25.75" y="47" transform="rotate(0 25.75,47)">2*</text>
  <path class="svgdsd dom_3" d="M 49.25,31          L 98.25,31"/>
<text class="svgdsd dom_3" x="73.75" y="47" transform="rotate(0 73.75,47)">3*</text>
</g>
</g>
</g>
</g>
</svg></g><text x="-15" y="-516.192" style="fill: black; text-anchor: middle">miRNAandedge</text><g/></g><g><path d=" M-215.5 -1023.9578358764647 A5 5 0 0 1 -210.5 -1028.9578358764647 L-111.5 -1028.9578358764647 L-111.5 -1028.9578358764647 A5 5 0 0 1 -106.5 -1023.9578358764647 L-106.5 -969.7078358764647 L-106.5 -969.7078358764647 A5 5 0 0 1 -111.5 -964.7078358764647 L-210.5 -964.7078358764647 L-210.5 -964.7078358764647 A5 5 0 0 1 -215.5 -969.7078358764647 L-215.5 -1023.9578358764647Z" style="stroke: Black; fill: White; stroke-width: 4; stroke-linejoin: miter; stroke-miterlimit: 2.0"/><g transform="translate(-210.5 -1023.9578358764647)" width="99" height="34.25"><svg xmlns="http://www.w3.org/2000/svg" height="34.25" width="99">
  <style>path { stroke: silver; stroke-width: 2.500000; stroke-linejoin: round; fill: none; } text { stroke: black; fill: black; stroke-width: 0; font-family: Verdana,Arial,sans-serif; font-size: 15.000000px; text-anchor: middle; } g { fill: none; } path.svgdsd { stroke: silver; stroke-width: 2.5; stroke-linejoin: round; } text.svgdsd { fill: black; stroke-width: 0; font-family: Verdana,Arial,sans-serif; font-size: 15px; text-anchor: middle } text.fixedwidth { font-family:Lucida Console,monospace } text.pseudoknot { font-weight:bold } path.shortbranchjoin {  } path.branchjoin { stroke-dasharray:4 } path.svgdsd.dom_3 { stroke: red } text.svgdsd.dom_3 { fill: red } path.svgdsd.tether-pin { stroke : black }</style>
  <g>
  <g>
  <path class="svgdsd" d="M 13.74,8.749          L 1.25,1.25          L 49.75,1.25"/>
<text class="svgdsd" x="25.25" y="17.25" transform="rotate(0 25.25,17.25)">2*</text>
  <path class="svgdsd dom_3" d="M 48.75,1.25          L 97.75,1.25"/>
<text class="svgdsd dom_3" x="73.25" y="17.25" transform="rotate(0 73.25,17.25)">3*</text>
</g>
</g>
</svg></g><text x="-161" y="-974.7078358764647" style="fill: black; text-anchor: middle">miRNA</text><g/></g><g><path d=" M-95.7205 -1061.9953358764649 A5 5 0 0 1 -90.7205 -1066.9953358764649 L90.7205 -1066.9953358764649 L90.7205 -1066.9953358764649 A5 5 0 0 1 95.7205 -1061.9953358764649 L95.7205 -931.6703358764648 L95.7205 -931.6703358764648 A5 5 0 0 1 90.7205 -926.6703358764648 L-90.7205 -926.6703358764648 L-90.7205 -926.6703358764648 A5 5 0 0 1 -95.7205 -931.6703358764648 L-95.7205 -1061.9953358764649Z" style="stroke: Black; fill: White; stroke-width: 4; stroke-linejoin: miter; stroke-miterlimit: 2.0"/><g transform="translate(-90.7205 -1061.9953358764649)" width="181.441" height="110.325"><svg xmlns="http://www.w3.org/2000/svg" height="110.325" width="181.441">
  <style>path { stroke: silver; stroke-width: 2.500000; stroke-linejoin: round; fill: none; } text { stroke: black; fill: black; stroke-width: 0; font-family: Verdana,Arial,sans-serif; font-size: 15.000000px; text-anchor: middle; } g { fill: none; } path.svgdsd { stroke: silver; stroke-width: 2.5; stroke-linejoin: round; } text.svgdsd { fill: black; stroke-width: 0; font-family: Verdana,Arial,sans-serif; font-size: 15px; text-anchor: middle } text.fixedwidth { font-family:Lucida Console,monospace } text.pseudoknot { font-weight:bold } path.shortbranchjoin {  } path.branchjoin { stroke-dasharray:4 } path.svgdsd.dom_3 { stroke: red } text.svgdsd.dom_3 { fill: red } path.svgdsd.tether-pin { stroke : black }</style>
  <g>
  <g>
  <g>
  <g>
  <path class="svgdsd" d="M 1.25,35.384          L 50.25,35.384"/>
<text class="svgdsd" x="25.75" y="29.384" transform="rotate(0 25.75,29.384)">2</text>
  <path class="svgdsd" d="M 14.24,50.884          L 1.75,43.384          L 50.25,43.384"/>
<text class="svgdsd" x="25.75" y="59.384" transform="rotate(0 25.75,59.384)">2*</text>
</g>
  <g>
  <path class="svgdsd dom_3" d="M 49.396,35.738          L 78.387,6.746          L 63.898,10.629"/>
<text class="svgdsd dom_3" x="59.649" y="17" transform="rotate(-45 59.649,17)">3</text>
</g>
  <g>
  <path class="svgdsd" d="M 49.396,43.031          L 84.044,77.679"/>
<text class="svgdsd" x="55.406" y="71.669" transform="rotate(45 55.406,71.669)">5</text>
</g>
</g>
  <g>
  <g>
  <path class="svgdsd" d="M 91.191,69.325          L 140.191,69.325"/>
<text class="svgdsd" x="115.691" y="63.325" transform="rotate(0 115.691,63.325)">2</text>
  <path class="svgdsd" d="M 83.191,77.325          L 140.191,77.325"/>
<text class="svgdsd" x="111.691" y="93.325" transform="rotate(0 111.691,93.325)">2*</text>
</g>
  <g>
  <path class="svgdsd dom_3" d="M 139.191,69.325          L 180.191,69.325          L 167.2,61.825"/>
<text class="svgdsd dom_3" x="159.691" y="63.325" transform="rotate(0 159.691,63.325)">3</text>
</g>
</g>
</g>
</g>
</svg></g><text x="0" y="-936.6703358764648" style="fill: black; text-anchor: middle">edgeandsmile</text><g/></g><g><path d=" M-237.5 -580.317 A5 5 0 0 1 -232.5 -585.317 L-93.5 -585.317 L-93.5 -585.317 A5 5 0 0 1 -88.5 -580.317 L-88.5 -526.067 L-88.5 -526.067 A5 5 0 0 1 -93.5 -521.067 L-232.5 -521.067 L-232.5 -521.067 A5 5 0 0 1 -237.5 -526.067 L-237.5 -580.317Z" style="stroke: Black; fill: White; stroke-width: 1; stroke-linejoin: miter; stroke-miterlimit: 2.0"/><g transform="translate(-232.5 -580.317)" width="139" height="34.25"><svg xmlns="http://www.w3.org/2000/svg" height="34.25" width="139">
  <style>path { stroke: silver; stroke-width: 2.500000; stroke-linejoin: round; fill: none; } text { stroke: black; fill: black; stroke-width: 0; font-family: Verdana,Arial,sans-serif; font-size: 15.000000px; text-anchor: middle; } g { fill: none; } path.svgdsd { stroke: silver; stroke-width: 2.5; stroke-linejoin: round; } text.svgdsd { fill: black; stroke-width: 0; font-family: Verdana,Arial,sans-serif; font-size: 15px; text-anchor: middle } text.fixedwidth { font-family:Lucida Console,monospace } text.pseudoknot { font-weight:bold } path.shortbranchjoin {  } path.branchjoin { stroke-dasharray:4 } path.svgdsd.dom_3 { stroke: red } text.svgdsd.dom_3 { fill: red } path.svgdsd.tether-pin { stroke : black }</style>
  <g>
  <g>
  <path class="svgdsd" d="M 13.74,8.749          L 1.25,1.25          L 49.75,1.25"/>
<text class="svgdsd" x="25.25" y="17.25" transform="rotate(0 25.25,17.25)">2*</text>
  <path class="svgdsd" d="M 48.75,1.25          L 89.75,1.25"/>
<text class="svgdsd" x="69.25" y="17.25" transform="rotate(0 69.25,17.25)">5</text>
  <path class="svgdsd" d="M 88.75,1.25          L 137.75,1.25"/>
<text class="svgdsd" x="113.25" y="17.25" transform="rotate(0 113.25,17.25)">2*</text>
</g>
</g>
</svg></g><text x="-163" y="-531.067" style="fill: black; text-anchor: middle">sp5</text><g/></g><g><path d=" M-149.789 -835.0036679382324 A5 5 0 0 1 -144.789 -840.0036679382324 L-31.210999999999984 -840.0036679382324 L-31.210999999999984 -840.0036679382324 A5 5 0 0 1 -26.210999999999984 -835.0036679382324 L-26.210999999999984 -698.0506679382324 L-26.210999999999984 -698.0506679382324 A5 5 0 0 1 -31.210999999999984 -693.0506679382324 L-144.789 -693.0506679382324 L-144.789 -693.0506679382324 A5 5 0 0 1 -149.789 -698.0506679382324 L-149.789 -835.0036679382324Z" style="stroke: Black; fill: White; stroke-width: 1; stroke-linejoin: miter; stroke-miterlimit: 2.0"/><g transform="translate(-144.789 -835.0036679382324)" width="113.578" height="116.953"><svg xmlns="http://www.w3.org/2000/svg" height="116.953" width="113.578">
  <style>path { stroke: silver; stroke-width: 2.500000; stroke-linejoin: round; fill: none; } text { stroke: black; fill: black; stroke-width: 0; font-family: Verdana,Arial,sans-serif; font-size: 15.000000px; text-anchor: middle; } g { fill: none; } path.svgdsd { stroke: silver; stroke-width: 2.5; stroke-linejoin: round; } text.svgdsd { fill: black; stroke-width: 0; font-family: Verdana,Arial,sans-serif; font-size: 15px; text-anchor: middle } text.fixedwidth { font-family:Lucida Console,monospace } text.pseudoknot { font-weight:bold } path.shortbranchjoin {  } path.branchjoin { stroke-dasharray:4 } path.svgdsd.dom_3 { stroke: red } text.svgdsd.dom_3 { fill: red } path.svgdsd.tether-pin { stroke : black }</style>
  <g>
  <g>
  <g>
  <g>
  <path class="svgdsd" d="M 1.25,35.384          L 50.25,35.384"/>
<text class="svgdsd" x="25.75" y="29.384" transform="rotate(0 25.75,29.384)">2</text>
  <path class="svgdsd" d="M 14.24,50.884          L 1.75,43.384          L 50.25,43.384"/>
<text class="svgdsd" x="25.75" y="59.384" transform="rotate(0 25.75,59.384)">2*</text>
</g>
  <g>
  <path class="svgdsd dom_3" d="M 49.396,35.738          L 78.387,6.746          L 63.898,10.629"/>
<text class="svgdsd dom_3" x="59.649" y="17" transform="rotate(-45 59.649,17)">3</text>
</g>
  <g>
  <path class="svgdsd" d="M 49.396,43.031          L 78.387,72.022"/>
<text class="svgdsd" x="52.578" y="68.84" transform="rotate(45 52.578,68.84)">5</text>
  <path class="svgdsd" d="M 77.68,71.315          L 112.328,105.963"/>
<text class="svgdsd" x="83.691" y="99.953" transform="rotate(45 83.691,99.953)">2*</text>
</g>
</g>
</g>
</g>
</svg></g><text x="-87.99999999999999" y="-703.0506679382324" style="fill: black; text-anchor: middle">sp6</text><g/></g><g><path d=" M-453.75 -601.384 A5 5 0 0 1 -448.75 -606.384 L-253.25 -606.384 L-253.25 -606.384 A5 5 0 0 1 -248.25 -601.384 L-248.25 -505 L-248.25 -505 A5 5 0 0 1 -253.25 -500 L-448.75 -500 L-448.75 -500 A5 5 0 0 1 -453.75 -505 L-453.75 -601.384Z" style="stroke: Black; fill: White; stroke-width: 1; stroke-linejoin: miter; stroke-miterlimit: 2.0"/><g transform="translate(-448.75 -601.384)" width="195.5" height="76.384"><svg xmlns="http://www.w3.org/2000/svg" height="76.384" width="195.5">
  <style>path { stroke: silver; stroke-width: 2.500000; stroke-linejoin: round; fill: none; } text { stroke: black; fill: black; stroke-width: 0; font-family: Verdana,Arial,sans-serif; font-size: 15.000000px; text-anchor: middle; } g { fill: none; } path.svgdsd { stroke: silver; stroke-width: 2.5; stroke-linejoin: round; } text.svgdsd { fill: black; stroke-width: 0; font-family: Verdana,Arial,sans-serif; font-size: 15px; text-anchor: middle } text.fixedwidth { font-family:Lucida Console,monospace } text.pseudoknot { font-weight:bold } path.shortbranchjoin {  } path.branchjoin { stroke-dasharray:4 } path.svgdsd.dom_3 { stroke: red } text.svgdsd.dom_3 { fill: red } path.svgdsd.tether-pin { stroke : black }</style>
  <g>
  <g>
  <g>
  <g>
  <path class="svgdsd" d="M 1.25,35.384          L 50.25,35.384"/>
<text class="svgdsd" x="25.75" y="29.384" transform="rotate(0 25.75,29.384)">2</text>
  <path class="svgdsd" d="M 14.24,50.884          L 1.75,43.384          L 58.25,43.384"/>
<text class="svgdsd" x="29.75" y="59.384" transform="rotate(0 29.75,59.384)">2*</text>
</g>
  <g>
  <path class="svgdsd dom_3" d="M 49.396,35.738          L 78.387,6.746          L 63.898,10.629"/>
<text class="svgdsd dom_3" x="59.649" y="17" transform="rotate(-45 59.649,17)">3</text>
</g>
</g>
  <g>
  <g>
  <path class="svgdsd" d="M 105.25,35.384          L 154.25,35.384"/>
<text class="svgdsd" x="129.75" y="29.384" transform="rotate(0 129.75,29.384)">2</text>
  <path class="svgdsd" d="M 105.25,43.384          L 154.25,43.384"/>
<text class="svgdsd" x="129.75" y="59.384" transform="rotate(0 129.75,59.384)">2*</text>
</g>
  <g>
  <path class="svgdsd dom_3" d="M 153.25,35.384          L 194.25,35.384          L 181.259,27.884"/>
<text class="svgdsd dom_3" x="173.75" y="29.384" transform="rotate(0 173.75,29.384)">3</text>
</g>
  <g>
  <path class="svgdsd" d="M 57.25,43.384          L 106.25,43.384"/>
<text class="svgdsd" x="81.75" y="59.384" transform="rotate(0 81.75,59.384)">5</text>
</g>
</g>
</g>
</g>
</svg></g><text x="-351" y="-510" style="fill: black; text-anchor: middle">sp1</text><g/></g><g><path d=" M-46.57291793823242 -896.6703358764648 L16.572917938232422 -896.6703358764648 L16.572917938232422 -870.0036679382324 L-46.57291793823242 -870.0036679382324 L-46.57291793823242 -896.6703358764648Z" style="stroke: Black; fill: white; stroke-width: 1; stroke-linejoin: miter; stroke-miterlimit: 2.0"/><text x="-15" y="-879.6703358764648" style="text-anchor: middle; stroke: Black">0.0003</text><text x="-15" y="-868.3370019073486" style="text-anchor: middle; stroke: Black"/><g/></g><g><path d=" M-192.57291793823242 -663.0506679382324 L-129.42708206176758 -663.0506679382324 L-129.42708206176758 -636.384 L-192.57291793823242 -636.384 L-192.57291793823242 -663.0506679382324Z" style="stroke: Black; fill: white; stroke-width: 1; stroke-linejoin: miter; stroke-miterlimit: 2.0"/><text x="-161" y="-646.0506679382324" style="text-anchor: middle; stroke: Black">0.0003</text><text x="-161" y="-634.7173339691162" style="text-anchor: middle; stroke: Black"/><g/></g><g><path d=" M-7.5 -926.6703358764648 L-7.5 -896.6703358764648" style="stroke: Black; stroke-width: 1; fill: none"/></g><g><path d=" M-106.5 -974.1036688919068 L-51.54482143122911 -911.7109603996277 L-51.54482143122911 -911.7109603996277 C-46.3049595071204 -905.7619454735533 -41.793832295725565 -900.7484039658323 -38.011439797044595 -896.6703358764648" style="stroke: Black; stroke-width: 1; fill: none"/></g><g><path d=" M-15 -870.0036679382323 L-15 -610.192" style="stroke: Black; stroke-width: 1; fill: none"/><path d=" M-12.783053373570601 -610.192 L-15 -600.192 L-17.216946626429397 -610.192 Z" style="stroke: Black; stroke-width: 1; fill: none"/></g><g><path d=" M-36.39195896911621 -870.0036679382324 L-36.39195896911622 -850.0036679382324" style="stroke: Black; stroke-width: 1; fill: none"/><path d=" M-34.17501234268682 -850.0036679382324 L-36.39195896911622 -840.0036679382324 L-38.608905595545615 -850.0036679382324 Z" style="stroke: Black; stroke-width: 1; fill: none"/></g><g><path d=" M-139.60804103088378 -693.0506679382324 L-139.60804103088378 -663.0506679382324" style="stroke: Black; stroke-width: 1; fill: none"/></g><g><path d=" M-161 -964.7078358764647 L-161 -663.0506679382324" style="stroke: Black; stroke-width: 1; fill: none"/></g><g><path d=" M-153.57414484476692 -636.384 L-85.71383190896424 -589.0774080369929" style="stroke: Black; stroke-width: 1; fill: none"/><path d=" M-84.44601754060238 -590.8960611297547 L-77.51041793823242 -583.3586669845581 L-86.98164627732609 -587.2587549442311 Z" style="stroke: Black; stroke-width: 1; fill: none"/></g><g><path d=" M-162 -636.384 L-162 -595.317" style="stroke: Black; stroke-width: 1; fill: none"/><path d=" M-159.7830533735706 -595.317 L-162 -585.317 L-164.2169466264294 -595.317 Z" style="stroke: Black; stroke-width: 1; fill: none"/></g></svg>